<?xml version="1.0" encoding="utf-8" ?><svg xmlns="http://www.w3.org/2000/svg" xmlns:xlink="http://www.w3.org/1999/xlink" width="230" height="200" viewBox="0 0 230 200"><path fill="#53B7AE" d="M5.65669 3.33079C7.98654 3.71001 10.6146 3.52706 12.982 3.52817C18.0042 3.54958 23.0264 3.48387 28.0463 3.33108C35.1292 3.11918 42.212 3.37519 49.2959 3.34477C64.5619 3.2792 80.2887 2.07931 94.8273 7.58098C108.411 12.7214 118.584 22.3592 124.535 35.6178C131.471 50.9944 132.029 68.493 126.087 84.2802C120.809 98.063 110.015 107.374 96.7682 113.303C98.6028 115.864 100.159 118.738 101.836 121.411C106.311 128.543 110.736 135.865 115.562 142.759C117.093 138.667 121.506 131.39 123.771 127.169L143.881 90.0874L175.14 32.069L184.577 14.6859C186.356 11.3747 187.99 7.73578 190.103 4.63368C190.244 4.42645 190.677 3.71007 190.861 3.62445C193.05 2.60509 218.732 4.22488 224.594 3.12222C224.337 10.8159 224.492 18.5597 224.504 26.2573L224.498 61.1876L224.43 171.508C224.427 180.081 223.867 188.887 224.433 197.427C213.786 196.814 202.644 197.21 191.969 197.463C191.649 193.495 191.892 189.352 191.899 185.367L191.883 161.678C191.891 157.266 192.144 152.779 191.88 148.377C177.388 147.988 162.873 148.485 148.38 148.144C145.787 154.077 142.573 159.847 139.498 165.545C138.011 168.299 136.358 171.044 135.137 173.927C136.619 176.94 139.042 179.937 140.889 182.784C144.057 187.665 147.019 192.75 150.401 197.48C138.025 197.225 125.633 197.62 113.261 197.359C110.854 194.628 108.925 191.149 106.949 188.091C102.93 181.861 98.9507 175.606 95.0105 169.326C87.9987 158.252 81.0684 147.127 74.2202 135.952C70.6446 130.129 66.6152 124.257 63.6047 118.13C59.9455 118.489 56.0632 118.277 52.3814 118.282C47.5291 118.288 42.6474 118.432 37.7985 118.283C38.2186 121.362 38.038 124.635 38.042 127.741L37.9144 146.468C37.8832 163.371 38.3026 180.324 38.0427 197.222C33.6021 197.741 28.7552 197.214 24.2513 197.204C18.0928 197.19 11.8847 197.526 5.73606 197.359C5.11706 192.093 5.55585 186.378 5.56249 181.051L5.55103 149.545L5.48948 34.2234L5.43133 13.7484C5.41152 10.6256 5.07858 7.25419 5.33325 4.15757C5.3594 3.83967 5.47432 3.59072 5.65669 3.33079ZM37.3789 34.1995C37.8875 37.3622 37.6924 40.6844 37.6891 43.8795L37.6491 59.3374L37.7268 77.1793C37.7459 80.7111 37.8792 84.3003 37.643 87.8254C46.0854 87.4573 54.6314 87.7576 63.085 87.77C68.4187 87.7779 74.1016 88.0271 79.3378 86.8729C82.5411 86.1668 85.2942 84.8705 88.0934 83.2138C93.2636 79.7146 96.4146 75.008 97.6065 68.8594C99.0906 61.2038 98.3694 51.5152 93.9157 44.9571C90.053 39.2692 83.6763 36.0245 77.0486 34.7761C72.2706 33.8761 67.2178 34.1005 62.3688 34.1114C56.263 34.1602 50.1568 34.1632 44.0509 34.1204L37.3789 34.1995ZM165.332 117.506C174.18 118.27 183.418 117.721 192.307 117.702C191.889 111.476 192.523 63.2718 191.864 62.4313C189.44 66.7783 187.376 71.3469 185.087 75.7691C180.193 85.0214 175.376 94.314 170.636 103.646C168.635 107.576 166.58 111.483 164.768 115.503C164.586 115.909 164.104 116.542 164.018 116.934C163.988 117.068 164.031 117.309 164.037 117.453C164.555 117.683 164.787 117.594 165.332 117.506Z"/></svg>